<svg width="32" height="33" viewBox="0 0 32 33" fill="none" xmlns="http://www.w3.org/2000/svg">
<path fill-rule="evenodd" clip-rule="evenodd" d="M25.719 32.5C24.3876 32.5 22.7796 32.1663 21.0112 31.499C17.1343 30.0374 12.9162 27.1485 9.13396 23.3664C5.35068 19.5831 2.46183 15.3639 0.999102 11.487C-0.330158 7.96208 -0.333387 5.06893 0.991568 3.74506C1.18208 3.55455 1.37582 3.35005 1.57601 3.13909C2.78472 1.86796 4.15058 0.43753 5.96096 0.502109C7.20842 0.553772 8.41713 1.32872 9.6549 2.86894C13.3123 7.41746 11.6633 9.0384 9.755 10.9176L9.41811 11.2513C9.10598 11.5634 8.51615 13.0089 14.0033 18.496C15.7943 20.287 17.3216 21.598 18.5421 22.3912C19.3106 22.8906 20.6851 23.6462 21.2491 23.0822L21.5881 22.7399C23.4652 20.8359 25.0862 19.1924 29.6315 22.8465C31.1717 24.0843 31.9456 25.2919 31.9972 26.5415C32.0715 28.3508 30.6303 29.7199 29.3581 30.9275C29.1482 31.1277 28.9437 31.3214 28.7532 31.5109C28.0956 32.1696 27.044 32.5 25.719 32.5Z" fill="#161616"/>
</svg>
