<svg width="21" height="21" viewBox="0 0 21 21" fill="none" xmlns="http://www.w3.org/2000/svg">
<path d="M12.9261 18.795C13.777 19.3448 14.791 19.5844 15.7975 19.4735C16.804 19.3626 17.7418 18.908 18.453 18.1861L19.0748 17.5772C19.3474 17.298 19.5 16.923 19.5 16.5324C19.5 16.1419 19.3474 15.7669 19.0748 15.4876L16.4357 12.8721C16.1592 12.6 15.787 12.4475 15.3994 12.4475C15.0117 12.4475 14.6396 12.6 14.3631 12.8721V12.8721C14.0843 13.1452 13.7098 13.298 13.3199 13.298C12.9299 13.298 12.5555 13.1452 12.2767 12.8721L8.1315 8.72059C7.99322 8.58411 7.88341 8.42145 7.80846 8.24209C7.73351 8.06272 7.69491 7.87022 7.69491 7.67578C7.69491 7.48134 7.73351 7.28884 7.80846 7.10947C7.88341 6.9301 7.99322 6.76745 8.1315 6.63097V6.63097C8.40322 6.35406 8.55548 5.98134 8.55548 5.59308C8.55548 5.20483 8.40322 4.83211 8.1315 4.55519L5.50622 1.92588C5.2274 1.65286 4.85295 1.5 4.46301 1.5C4.07308 1.5 3.69863 1.65286 3.41981 1.92588L2.81185 2.54861C2.09107 3.26094 1.63715 4.2001 1.52643 5.20819C1.41571 6.21628 1.65494 7.2318 2.20389 8.08402C5.06413 12.3058 8.70345 15.9413 12.9261 18.795V18.795Z" stroke="#005DA6" stroke-width="2" stroke-linecap="round" stroke-linejoin="round"/>
</svg>
