<svg width="31" height="30" viewBox="0 0 31 30" fill="none" xmlns="http://www.w3.org/2000/svg">
<path fill-rule="evenodd" clip-rule="evenodd" d="M30.1382 12.9096L30.1382 12.9096V12.909C30.1382 12.3552 30.1382 11.8014 30.1324 11.2475C30.1033 10.9618 30.0742 10.6819 30.0392 10.3961C29.9053 9.2823 29.6548 8.19763 29.2646 7.14211C28.6997 5.6084 27.9076 4.19716 26.8942 2.91421C26.1604 1.98699 25.3333 1.1589 24.3957 0.441616C24.2151 0.301658 24.0171 0.179195 23.8074 0.0975525C23.3881 -0.0715636 23.0328 0.0975523 22.7358 0.400795C22.2291 0.919806 21.9612 1.70124 22.7882 2.33688C22.9762 2.48029 23.1504 2.64437 23.3241 2.80793L23.3242 2.80801C23.3765 2.85725 23.4287 2.90645 23.4813 2.95503C24.3665 3.77145 25.1761 4.65785 25.7993 5.69588C27.4184 8.39007 28.0008 11.2942 27.4708 14.3966C26.9524 17.4407 25.4906 19.9483 23.126 21.9368C22.5841 22.396 21.9956 22.7804 21.4063 23.1653L21.1982 23.3014C21.0002 23.4297 20.8138 23.6105 20.6915 23.8146C20.4352 24.252 20.5867 24.9285 20.9944 25.3367C21.303 25.6457 21.7166 25.8323 22.2466 25.5466C23.0619 25.1092 23.8365 24.6077 24.5529 24.0246C26.9641 22.0535 28.624 19.5692 29.5442 16.5893C29.8994 15.4463 30.1149 14.2741 30.1149 13.067C30.1149 13.0145 30.1266 12.9621 30.1382 12.9096ZM0.144008 11.4757C0.152744 11.3532 0.162936 11.2293 0.173128 11.1054C0.18332 10.9815 0.193513 10.8576 0.202249 10.7351C0.272138 9.84286 0.464334 8.97395 0.708947 8.11671C1.57674 5.10761 3.24244 2.62335 5.6478 0.634783L5.64781 0.634774L5.64782 0.63477C5.79924 0.512311 5.95066 0.389853 6.10791 0.273225C6.50977 -0.0241858 6.90581 -0.0416807 7.33097 0.226572C7.86679 0.558973 8.14052 1.2471 7.93086 1.78944C7.86679 1.95272 7.73284 2.09851 7.60471 2.22681C7.40873 2.41603 7.20621 2.5987 7.00388 2.78119L7.00387 2.7812C6.70113 3.05427 6.39884 3.32694 6.11956 3.62056C4.27913 5.54498 3.13178 7.82513 2.75904 10.4668C2.29311 13.7675 3.02695 16.7941 4.92561 19.5291C5.93901 20.9929 7.23196 22.165 8.75788 23.0806C8.92678 23.1797 9.08986 23.2847 9.25293 23.3955C9.71304 23.722 9.88194 24.2177 9.68974 24.7426C9.61403 24.9467 9.50337 25.1508 9.36359 25.3199C9.04326 25.7106 8.60063 25.8214 8.15217 25.594C7.73284 25.384 7.31932 25.1449 6.92911 24.8825C4.8499 23.4946 3.19002 21.7101 1.96696 19.5291C1.08752 17.9604 0.545872 16.2693 0.272138 14.4965C0.233311 14.2477 0.215191 13.9937 0.197072 13.7397C0.188012 13.6127 0.178952 13.4857 0.167304 13.3593C0.16217 13.2925 0.152511 13.2302 0.142315 13.1644L0.138184 13.1377C0.144008 12.5837 0.144008 12.0297 0.144008 11.4757V11.4757ZM11.7165 29.5646C11.5884 29.5646 11.4661 29.5238 11.3612 29.4538C11.2739 29.3955 11.1923 29.3372 11.1108 29.273C10.639 28.9115 10.4818 28.4216 10.5983 27.856C10.7905 26.9287 11.006 26.0015 11.2215 25.0801C11.5321 23.7389 11.8478 22.3977 12.1636 21.0565C12.3215 20.3858 12.4795 19.7151 12.6367 19.0444C12.82 18.2599 12.9967 17.4731 13.1735 16.6854L13.1735 16.6854L13.1736 16.6853L13.1736 16.6853L13.1736 16.6852L13.1736 16.6852C13.2833 16.1966 13.393 15.7078 13.5045 15.2189C13.5091 15.1982 13.5119 15.1765 13.5147 15.155C13.5189 15.1221 13.5231 15.0897 13.5336 15.0615C13.5861 14.8748 13.5511 14.7407 13.3822 14.6008C12.957 14.2509 12.6251 13.8193 12.4212 13.3061C12.3572 13.1487 12.328 12.9679 12.3164 12.7988C12.3077 12.6792 12.3091 12.5597 12.3106 12.4401C12.312 12.3206 12.3135 12.2011 12.3047 12.0815C12.2523 11.3934 12.5552 10.8452 12.9978 10.367C13.6385 9.66723 14.4247 9.30567 15.3915 9.39315C16.3001 9.48062 17.0048 9.91216 17.5523 10.6353C18.2279 11.5392 18.2453 12.9621 17.5523 13.9185C17.3892 14.1424 17.1927 14.3401 16.9983 14.5357L16.9983 14.5357L16.9983 14.5357L16.9982 14.5357C16.9496 14.5846 16.9012 14.6334 16.8534 14.6824C16.7602 14.7815 16.7136 14.8573 16.7486 15.009C17.2552 17.1317 17.7503 19.2544 18.2453 21.3771L18.2454 21.3773L18.2455 21.3775L18.2455 21.3777L18.2456 21.378L18.2456 21.3782L18.2457 21.3784C18.7057 23.3607 19.1657 25.343 19.614 27.3253C19.6743 27.5897 19.705 27.8616 19.7356 28.132L19.7356 28.1323C19.7435 28.2016 19.7513 28.2709 19.7596 28.34C19.7829 28.5383 19.7305 28.7249 19.6024 28.8707C19.4613 29.0266 19.308 29.1743 19.156 29.3207L19.0665 29.4072C18.9559 29.5121 18.7986 29.5704 18.6472 29.5704H11.7165V29.5646ZM4.16858 12.6062C4.1744 10.6352 4.54132 9.06647 5.24022 7.56776C5.93911 6.06321 6.99328 4.83857 8.23381 3.77139C8.70557 3.36318 9.20062 3.404 9.66655 3.82388C10.0917 4.20293 10.2315 4.68112 10.115 5.22346C10.0859 5.35175 9.98105 5.48005 9.88204 5.58502C9.74438 5.72922 9.60364 5.87033 9.46289 6.01145C9.2166 6.2584 8.9703 6.50535 8.74051 6.76883C7.66305 8.01679 6.96998 9.45136 6.77196 11.0959C6.43998 13.8425 7.19712 16.2452 9.1249 18.2512C9.35109 18.4819 9.60138 18.6915 9.84978 18.8994C9.94676 18.9806 10.0434 19.0616 10.1383 19.1435C10.1965 19.1959 10.2548 19.2426 10.313 19.2892C11.1808 19.9307 10.6799 21.2662 9.93446 21.5227C9.67237 21.6102 9.42776 21.6161 9.17732 21.4878C8.67645 21.237 8.25711 20.8696 7.8436 20.5022C6.08471 18.9277 4.96066 16.9799 4.42484 14.6881C4.24429 13.895 4.16275 13.0961 4.16858 12.6062ZM26.0708 12.9335L26.0708 12.9334L26.0708 12.9333C26.0814 12.7306 26.0919 12.5279 26.1078 12.3263C26.0903 12.3263 26.0787 12.3263 26.0554 12.3205L26.0545 12.1933C26.0496 11.3896 26.0446 10.582 25.8399 9.79542C25.2924 7.69604 24.2965 5.84743 22.7181 4.34288C22.4502 4.08629 22.1532 3.85303 21.8445 3.64309C21.53 3.42732 21.1922 3.43899 20.8603 3.6256C20.4933 3.83553 20.2778 4.15627 20.1439 4.55282C20.039 4.86772 20.0798 5.1593 20.2837 5.41006C20.4584 5.62583 20.6564 5.82411 20.8544 6.01655C22.8754 8.00512 23.848 10.3902 23.551 13.2419C23.3704 14.9739 22.689 16.5017 21.5475 17.808C21.1962 18.2118 20.7901 18.5671 20.3844 18.9221C20.2452 19.0439 20.106 19.1656 19.9692 19.2892C19.7944 19.4525 19.6314 19.6216 19.5731 19.8666C19.4333 20.4497 19.7187 21.132 20.2429 21.4411C20.5283 21.6044 20.8195 21.6335 21.1107 21.4703L21.1108 21.4702C21.2389 21.4002 21.367 21.3303 21.4893 21.2487C22.0833 20.8346 22.6075 20.3389 23.1142 19.8199C24.6226 18.2804 25.5137 16.4143 25.9331 14.3207C26.0223 13.8657 26.0466 13.3994 26.0708 12.9335V12.9335ZM8.22785 12.2504C8.22202 10.4484 8.90927 8.92056 10.0624 7.57929C10.2954 7.30521 10.575 7.08361 10.9594 7.03113C11.4311 6.96698 11.7689 7.18275 12.0485 7.51515C12.4853 8.03416 12.5028 8.48902 12.1067 9.03719C12.019 9.15889 11.9252 9.27718 11.8314 9.39556C11.6508 9.6232 11.47 9.85117 11.3321 10.1044C10.5983 11.434 10.5575 12.8044 11.1865 14.1865C11.3263 14.4956 11.4952 14.7988 11.6932 15.0729C12.031 15.5452 11.9087 16.3034 11.5651 16.6824C11.4894 16.764 11.4078 16.8457 11.3205 16.9215C10.8662 17.3064 10.4294 17.2947 10.0042 16.8807C9.49751 16.3967 9.15388 15.8018 8.86268 15.172C8.43169 14.2448 8.23367 13.2709 8.22785 12.2504ZM20.4525 16.7232C21.4833 15.4636 22.0366 14.0174 22.0483 12.4195C22.0425 12.2271 22.0366 12.0754 22.025 11.9238L21.99 11.469C21.8386 9.85361 21.1397 8.50068 19.9982 7.36935C19.4973 6.87367 18.7693 6.92615 18.2801 7.42767C17.9539 7.7659 17.7384 8.57649 18.1927 9.04885C18.2919 9.1527 18.3807 9.27054 18.4697 9.38883C18.4957 9.42331 18.5217 9.45783 18.548 9.49205C19.5497 10.8333 19.8701 12.297 19.2352 13.8891C19.0765 14.2837 18.856 14.6474 18.6366 15.0093C18.6226 15.0324 18.6086 15.0556 18.5946 15.0787C18.3674 15.4578 18.3383 15.8368 18.5014 16.2334C18.5771 16.4141 18.6819 16.5833 18.8101 16.729C19.3109 17.3064 19.9691 17.3122 20.4525 16.7232Z" fill="#005DA5"/>
</svg>
