<svg width="154" height="41" viewBox="0 0 154 41" fill="none" xmlns="http://www.w3.org/2000/svg">
<path fill-rule="evenodd" clip-rule="evenodd" d="M106.089 14.9074C103.517 15.2723 102.953 16.6165 102.956 22.3746C102.959 27.0115 103.258 28.7386 104.207 29.6036C104.989 30.3166 106.098 30.5091 109.088 30.4505C111.359 30.4059 111.911 30.3024 112.63 29.7872C113.774 28.968 114.2 27.2256 114.085 23.8385C114.021 21.9781 113.883 21.1533 113.506 20.3941C112.89 19.1545 111.854 18.8704 108.173 18.9323L106.07 18.9677L106.07 18.4076C106.071 17.6901 106.186 17.2883 106.466 17.0282L106.689 16.8206L109.578 16.7778C113.063 16.7262 112.843 16.8059 112.892 15.5773L112.922 14.8093L109.777 14.8199C108.047 14.8257 106.388 14.8651 106.089 14.9074ZM132.451 15.0595C132.211 15.2971 132.198 15.3465 132.198 16.0437V16.7778H134.573C136.165 16.7778 137.019 16.7457 137.164 16.6803C137.487 16.5348 137.648 16.1142 137.648 15.4169V14.8093H135.176H132.704L132.451 15.0595ZM34.4338 18.924C34.4338 19.5665 34.4509 19.6321 34.6754 19.8543L34.9171 20.0933L37.4224 20.1389C38.9008 20.1658 40.059 20.2243 40.2482 20.2813C40.8692 20.469 41.066 20.9864 41.1132 22.5547L41.1389 23.4106L38.7813 23.4333L36.4237 23.4561V24.3106V25.165H38.8161H41.2085L41.1495 26.2563C41.0794 27.5541 40.9876 27.9382 40.6731 28.2493C40.3466 28.5723 39.9281 28.6168 37.1394 28.6245L34.7839 28.6312L34.5445 28.8679C34.3304 29.0797 34.3019 29.1767 34.2738 29.788L34.2424 30.4713H37.4032C41.574 30.4713 42.4028 30.3472 43.2222 29.6C44.0636 28.8328 44.2472 27.9384 44.2474 24.6088C44.2475 22.0033 44.1816 21.2904 43.8479 20.2874C43.7011 19.8462 43.5621 19.6319 43.173 19.2471C42.3025 18.3859 41.4271 18.2403 37.0942 18.2356L34.4338 18.2327V18.924ZM62.9696 18.3148C60.5603 18.5129 59.7337 19.1284 59.2873 21.057C59.0639 22.0225 59.0647 27.0572 59.2885 27.9893C59.7796 30.0353 60.7341 30.4721 64.7125 30.4707C68.4339 30.4694 69.4667 30.024 69.962 28.207C70.2764 27.0534 70.3148 22.869 70.0261 21.231C69.7191 19.49 69.0232 18.7596 67.3746 18.4482C66.5885 18.2998 64.0769 18.2236 62.9696 18.3148ZM93.5926 18.315C90.9199 18.5346 90.0925 19.296 89.8017 21.8038C89.6483 23.1268 89.7299 27.3345 89.9243 28.1299C90.2797 29.5835 91.0721 30.1739 92.9643 30.3946C94.1366 30.5314 97.7106 30.4471 98.4373 30.2655C99.8626 29.9093 100.442 29.209 100.709 27.5181C100.853 26.6098 100.855 22.5295 100.713 21.6133C100.385 19.5093 99.7578 18.7799 97.9888 18.4458C97.2126 18.2992 94.696 18.2243 93.5926 18.315ZM118.507 18.2905L116.884 18.3221V18.9249C116.884 20.11 116.896 20.1145 120.06 20.1193C121.43 20.1214 122.721 20.1554 122.928 20.1951C123.796 20.3608 124.082 20.8429 124.136 22.2254L124.173 23.1824L121.286 23.2171C118.84 23.2465 118.328 23.2747 117.936 23.4012C117.309 23.6036 116.767 24.1102 116.542 24.7037C116.286 25.38 116.17 26.5714 116.277 27.4193C116.408 28.4613 116.594 28.8991 117.144 29.4551C118.027 30.3484 118.904 30.5161 122.333 30.4471C124.531 30.4027 125.483 30.3263 126.618 30.1028L127.137 30.0006L127.162 26.1921C127.176 23.9931 127.149 22.0334 127.098 21.555C126.894 19.6581 126.187 18.7828 124.583 18.4445C123.878 18.2958 121.425 18.2336 118.507 18.2905ZM46.6332 23.6459C46.6335 26.8701 46.6662 28.8327 46.723 29.0351C46.8426 29.4608 47.1974 29.8619 47.6241 30.0536C47.8854 30.1711 48.1866 30.2113 48.8172 30.2127L49.6608 30.2145V27.7326V25.2506H50.2608C50.5907 25.2506 50.9615 25.2885 51.0846 25.3348C51.2336 25.3908 51.5292 25.7557 51.9687 26.4261C54.2277 29.8715 54.2013 29.8355 54.6123 30.0322C54.972 30.2045 55.1118 30.217 56.4385 30.1953L57.8751 30.1717L55.9618 27.3047C54.9094 25.7278 54.0348 24.3798 54.0182 24.3092C54.0016 24.2386 54.8173 22.9292 55.8307 21.3993L57.6734 18.6178L56.3708 18.5925C54.8026 18.5621 54.5872 18.5951 54.2086 18.9239C54.0473 19.064 53.3819 19.9961 52.7301 20.9951C52.0782 21.9941 51.4319 22.9174 51.2936 23.0468C51.0626 23.2632 50.9865 23.2822 50.3515 23.2822H49.6608V20.9286V18.575H48.1467H46.6327L46.6332 23.6459ZM72.7627 23.7315C72.7645 28.5617 72.7747 28.9096 72.9243 29.2303C73.2536 29.936 73.7939 30.2145 74.8336 30.2145H75.5278L75.5502 25.7969L75.5726 21.3793L76.8622 25.4518C77.5715 27.6918 78.2066 29.6361 78.2734 29.7725C78.4583 30.1503 78.7071 30.2145 79.9849 30.2145C81.2463 30.2145 81.5325 30.1442 81.7061 29.7913C81.7654 29.6711 82.4146 27.7217 83.1488 25.4595L84.4838 21.3464L84.5271 25.5023C84.5509 27.788 84.6042 29.727 84.6457 29.8112C84.7997 30.1236 85.1618 30.2145 86.2531 30.2145H87.2956V24.3948V18.575H85.2721C83.4715 18.575 83.2278 18.5916 83.0609 18.7252C82.9202 18.838 82.5315 19.9273 81.5023 23.0925C80.7483 25.4119 80.1037 27.3759 80.07 27.4569C80.0044 27.6144 79.6857 26.6772 78.1267 21.7417C77.4335 19.547 77.2027 18.9195 77.0328 18.7676C76.8223 18.5794 76.7711 18.575 74.7891 18.575H72.7608L72.7627 23.7315ZM129.775 23.8662L129.819 29.1574L130.051 29.5044C130.416 30.0498 130.877 30.2267 131.857 30.1965L132.658 30.1717L134.959 26.4832C136.224 24.4545 137.325 22.7022 137.406 22.5891C137.545 22.3944 137.553 22.5786 137.557 26.0775L137.562 29.7714L137.828 29.993C138.085 30.2073 138.132 30.2145 139.256 30.2145H140.417V24.3948V18.575H139.042C137.858 18.575 137.643 18.5958 137.491 18.7248C137.394 18.8071 136.296 20.5114 135.052 22.5119C133.808 24.5125 132.754 26.1859 132.71 26.2306C132.661 26.2802 132.63 24.9035 132.63 22.6936V19.0754L132.378 18.8252L132.125 18.575H130.928L129.732 18.575L129.775 23.8662ZM145.919 18.7676C145.747 18.9196 145.471 19.6542 144.609 22.2552C143.121 26.744 142.045 29.9787 141.996 30.1076C141.965 30.1897 142.214 30.2141 143.068 30.2127C144.341 30.2105 144.738 30.0923 145.113 29.6034C145.265 29.4058 145.756 28.0033 146.681 25.1223C147.792 21.6625 148.067 20.8949 148.25 20.7361C148.459 20.5555 148.55 20.5435 149.72 20.5435H150.968L150.991 25.1294L151.015 29.7151L151.298 29.9649L151.58 30.2145H152.79H154V24.3948V18.575H150.068H146.137L145.919 18.7676ZM66.5039 20.5077C66.9814 20.8565 67.0687 21.3434 67.1155 23.9241C67.1405 25.3051 67.1205 26.5302 67.0657 26.9689C66.8865 28.4051 66.8181 28.4507 64.7931 28.4882C62.9355 28.5225 62.7297 28.466 62.4428 27.8425C62.2667 27.4597 62.2523 27.277 62.2215 25.0322C62.1737 21.5621 62.3037 20.7815 62.9873 20.4337C63.247 20.3016 63.4861 20.2844 64.7735 20.3053C66.1216 20.3273 66.2826 20.3461 66.5039 20.5077ZM97.0576 20.4579C97.6333 20.8241 97.7615 21.7097 97.7198 25.0367C97.6765 28.493 97.6694 28.5029 95.2363 28.5027C93.5938 28.5026 93.3349 28.4266 93.049 27.861C92.8858 27.5382 92.8759 27.3475 92.8759 24.5232C92.8759 20.1916 92.8292 20.2701 95.3849 20.3079C96.5159 20.3245 96.9024 20.3592 97.0576 20.4579ZM110.286 21.0799C110.865 21.3927 111 22.064 110.999 24.6088C110.997 27.2893 110.831 28.0628 110.192 28.3627C109.745 28.5724 107.365 28.5652 106.935 28.3529C106.229 28.0041 106.071 27.1089 106.07 23.4364L106.07 20.9804L106.524 20.9456C106.774 20.9265 107.66 20.9149 108.492 20.9198C109.764 20.9273 110.051 20.9529 110.286 21.0799ZM124.152 26.7082C124.152 28.3433 124.138 28.5135 124 28.5663C123.917 28.5982 123.051 28.6258 122.075 28.6277C120.44 28.631 120.278 28.6175 119.999 28.4558C119.538 28.1884 119.441 27.9135 119.408 26.7835C119.386 26.0319 119.412 25.7148 119.513 25.4755C119.732 24.9576 119.931 24.9155 122.184 24.9116L124.152 24.9083V26.7082Z" fill="#161616"/>
<path fill-rule="evenodd" clip-rule="evenodd" d="M3.30927 3.27558L0 6.55124L0.00103829 22.2984C0.00190346 35.1613 0.0231866 38.1239 0.117577 38.4734C0.471344 39.7834 1.42329 40.6602 2.76508 40.9119C3.39137 41.0294 21.439 41.0294 22.0653 40.9119C23.1779 40.7032 24.0304 40.0535 24.5125 39.0469L24.7871 38.4734L24.8097 20.7206C24.8349 0.974894 24.876 2.37591 24.2447 1.46118C23.8778 0.929619 23.2395 0.417909 22.6674 0.196844C22.3078 0.0577695 21.6808 0.0445895 14.4483 0.0231934L6.61854 0L3.30927 3.27558ZM13.5647 19.2879C13.7973 19.5177 13.7997 19.5323 13.8276 20.8661C13.8639 22.6071 13.822 22.8671 13.4375 23.2882C12.8812 23.8973 12.1152 23.9441 11.5129 23.4058C11.0408 22.9839 10.9703 22.6449 11.0032 20.9536C11.0297 19.5913 11.0398 19.5204 11.2363 19.3137C11.4954 19.0412 11.6345 19.0123 12.5698 19.0363C13.2679 19.0544 13.3492 19.0749 13.5647 19.2879ZM9.04006 24.2608C12.69 25.4379 12.1756 25.443 16.0333 24.192C18.9758 23.2378 19.1953 23.1954 19.4949 23.5229C19.6573 23.7004 20.0693 24.9483 20.0708 25.2672C20.0731 25.7533 19.8295 25.8784 17.3034 26.688C15.2869 27.3343 14.9202 27.4771 14.8979 27.6244C14.8805 27.739 15.3746 28.4844 16.347 29.8105C17.8855 31.9087 17.979 32.095 17.6944 32.4969C17.624 32.5963 17.298 32.8745 16.9701 33.115C16.3858 33.5435 16.074 33.6386 15.7083 33.4997C15.6322 33.4708 14.9242 32.5673 14.1351 31.4918C13.346 30.4162 12.6464 29.492 12.5805 29.4379C12.5146 29.3838 12.4063 29.3601 12.3401 29.3853C12.2737 29.4104 11.5538 30.3347 10.7402 31.439C9.9266 32.5434 9.19856 33.4707 9.12225 33.4997C8.69036 33.6635 8.07488 33.3846 7.33767 32.691C6.99264 32.3663 6.92005 32.0772 7.10009 31.7444C7.15088 31.6507 7.81498 30.7257 8.57598 29.6889C9.49929 28.431 9.95074 27.7451 9.93291 27.6272C9.91007 27.4762 9.56046 27.3398 7.52697 26.688C4.99505 25.8766 4.75843 25.7545 4.75843 25.2608C4.75843 25.0609 5.00517 24.2463 5.23539 23.6861C5.32243 23.4743 5.71072 23.276 5.96966 23.3111C6.08862 23.3272 7.4703 23.7546 9.04006 24.2608Z" fill="#005DA6"/>
</svg>
